<?xml version="1.0" encoding="utf-8"?>
<!-- Generator: Adobe Illustrator 26.0.3, SVG Export Plug-In . SVG Version: 6.00 Build 0)  -->
<svg version="1.0" id="katman_1" xmlns="http://www.w3.org/2000/svg" xmlns:xlink="http://www.w3.org/1999/xlink" x="0px" y="0px"
	 viewBox="0 0 800 600" style="enable-background:new 0 0 800 600;" xml:space="preserve">
<style type="text/css">
	.st0{fill:#FFFFFF;}
	.st1{fill:none;}
	.st2{fill:#05714B;}
</style>
<g>
	<ellipse class="st0" cx="399.8" cy="300" rx="233.7" ry="235.1"/>
	<g id="Layer_2_1_">
		<g id="Layer_1-2">
			<polyline class="st2" points="541.3,516.1 546.4,529 546.4,529 			"/>
			<path class="st2" d="M423.4,166L423.4,166c-7.8-1.3-15.8-2-23.7-2.1c-8,0-15.9,0.7-23.6,2.1c-1.2,0.1-1.7-0.9-0.8-1.6
				s24.4-18.7,24.4-18.7s23.6,18,24.4,18.7C424.9,165.1,424.6,166.1,423.4,166z M382.6,282.5L382.6,282.5c-0.8,0.3-1.3,0.9-1.6,1.6
				c5,3.8,8.4,12.5,18.7,12.5c10.3,0,13.8-8.6,18.8-12.5c-0.3-0.8-0.9-1.3-1.6-1.6c-5.6,1.2-11.4,1.7-17.1,1.6
				C394,284.2,388.2,283.7,382.6,282.5z M399.7,268L399.7,268c-2.9,0-3.4-1-5.3-1s-5.5,1.4-6.4,2.7c0.1,0.7,0.4,1.3,0.8,1.8
				c4.2,0.7,6,3,11,3s6.7-2.3,11-3c0.5-0.5,0.8-1.2,0.8-1.8c-0.8-1.3-4.4-2.7-6.3-2.7C403.4,267,402.6,268,399.7,268L399.7,268z
				 M635.2,312.5L635.2,312.5c-0.3,5.7-0.8,11.2-1.4,16.8c-26.6,4.4-36.3-19.4-63.5-18.1c1.7,5.9,3,11.7,3.9,17.7
				c22.6-0.1,31.7,21,56.8,17.9c-1.3,6.4-2.9,12.8-4.7,19.1c-19.8,2-26.9-17.7-49.8-17.2c0.1,3.3,0.3,6.5,0.3,9.9
				c0,1.8,0,3.8-0.1,5.5c19.6-0.1,26,17.9,44.5,17c-2.2,6.3-4.8,12.5-7.7,18.5c-13.4-0.7-18-17.9-38.4-16.4c-0.7,4.4-1.4,8.7-2.3,13
				c17.7-1.2,21.5,15,34.2,16.3c-3.3,5.9-6.7,11.6-10.4,17.1c-7.4-4-14-16.2-28.2-16.8c1.4-4.4,2.7-9.1,3.8-13.7
				c-12.7,0-27.1-5-39.3-16c3.9-22.3-30.8-45-30.8-61.5c0-17.7,9-27.5,9-51.5c0-17.7-8.6-37.1-21.7-50.2c-2.5-2.5-5.1-4.7-8.1-6.5
				c12,14.7,21.1,32.4,21.1,52.7c0,22.6-10.4,34.4-10.4,55.3s30.5,38.9,30.5,60.3c0,8.5-2.7,16.7-11.6,33
				c13.7,13.7,31.4,21.1,43.1,21.1c3.8,0,5.7-1.2,7-4c1.2-2.5,2.2-5.1,3.3-7.7c12.4,0.5,18.1,11.7,24.9,16.2
				c-3.8,5.1-7.7,9.9-11.9,14.6c-4.6-5.1-10.8-13.6-19.8-16c-1.6,3.1-3.3,6.3-5.1,9.3c7.8,2.1,13.2,9.9,17.2,15.1
				c-4.4,4.7-9,9.1-14,13.3c-3-4.7-7.7-10.6-12.9-13.8c-1.8,2.6-3.9,5.2-6,7.7c4.4,3,8.4,8.4,11,12.8c-5.5,4.4-11.2,8.6-17.2,12.7
				c-3-23.9-35.6-40.3-26.9-68.1c-2.9,4.8-6.4,11-6.4,18.4c0,20.1,21.4,36,23.1,56.1c-4.4,2.6-9,5.1-13.6,7.4
				c-0.8-21.9-23.4-45.9-23.4-63.9c0-20.1,26.4-40.3,26.4-64.1c0-23.7-30.5-40.2-30.5-60.9s12.9-32.9,12.9-59.5
				c-0.3-19.8-8.9-38.8-23.6-52.1c-2.5-2.2-5.1-4-8-5.6c13.6,16.2,21.4,31.1,21.4,53.4c0,25.2-14.9,39-14.9,63.5
				s29.9,38.2,29.9,61.2c0,23-27.8,42.3-27.8,65.9c0,21.4,24.5,42.8,24.9,68.2c-5.3,2.3-10.8,4.4-16.4,6.4
				c3.1-25.7-24.4-52.2-24.4-73.2c0-22.8,28.8-42.5,28.8-67.3s-29.2-36.1-29.2-61.6s18-39.4,18-67.3c-0.1-21-9.9-40.8-26.6-53.6
				c-0.4-0.3-0.7-0.5-1-0.9c-1.4-1-2.7,0.3-1.6,1.6c11.1,13.8,17.1,28.1,17.1,48.8c0,25.7-20.6,46.5-20.6,71.4
				c0,29.2,27.7,37.6,27.7,61.6c0,24-29.7,43.3-29.7,68.8c0,23.6,28.2,49.8,23.4,77.2c-5.6,1.4-11.4,2.7-17.1,3.8
				c5.3-33.9-22.3-58.5-22.3-80.6c0-24.1,30.8-45.7,30.8-69.2c0-22.2-22.1-29.5-24.9-52.1c-0.3-3-2.7-5.1-5.7-5
				c-0.3,0-0.4,0-0.7,0.1c-4.4,0.8-10.3,3.8-19.3,3.8c-9,0-14.7-3-19.3-3.8c-3-0.5-5.7,1.4-6.3,4.4c0,0.1,0,0.3,0,0.4
				c-2.9,22.7-24.9,30-24.9,52.1c0,23.5,30.8,45,30.8,69.2c0,22.2-27.7,46.7-22.3,80.6c-5.7-1-11.6-2.3-17.1-3.8
				c-4.8-27.4,23.4-53.6,23.4-77.2c0-25.4-29.7-44.6-29.7-68.8s27.8-32.4,27.8-61.6c0-24.9-20.7-45.7-20.7-71.4
				c0-20.7,6-35,17.1-48.8c1-1.3-0.1-2.6-1.7-1.6c-0.4,0.3-0.7,0.5-1,0.9c-16.7,12.8-26.5,32.6-26.6,53.6c0,27.9,18,42,18,67.3
				c0,25.3-29.2,36.9-29.2,61.6c0,24.7,28.8,44.4,28.8,67.3c0,21-27.7,47.5-24.4,73.2c-5.6-2-11-4-16.4-6.4
				c0.4-25.4,24.9-46.8,24.9-68.2c0-23.5-27.8-42.8-27.8-65.8s29.9-36.5,29.9-61.2s-14.9-38.5-14.9-63.7c0-22.3,7.8-37.2,21.4-53.4
				c-3,1.6-5.7,3.4-8.1,5.6c-14.7,13.3-23.4,32.2-23.6,52.1c0,26.6,12.9,38.6,12.9,59.5c0,20.9-30.4,37.3-30.4,60.9
				c0,23.6,26.4,44,26.4,64.1c0,18-22.7,42-23.5,63.9c-4.7-2.3-9.1-4.8-13.6-7.4c1.7-20,23.1-35.9,23.1-56.1
				c0-7.3-3.4-13.6-6.3-18.4c8.9,27.8-23.9,44.2-26.9,68.1c-5.9-4-11.6-8.2-17.2-12.7c2.6-4.4,6.5-9.9,11-12.8c-2.1-2.5-4-5.1-6-7.7
				c-5.2,3.1-9.9,9.1-12.9,13.8c-4.7-4.2-9.4-8.6-14-13.2c4.2-5.1,9.5-13,17.2-15.1c-1.8-3.1-3.5-6.1-5.1-9.3
				c-9,2.5-15.1,11-19.8,16c-4-4.7-8.1-9.7-11.9-14.6c6.9-4.4,12.7-15.8,25.1-16.2c1,2.5,2.1,5.1,3.3,7.7c1.3,2.9,3.3,4,7,4
				c11.5,0,29.2-7.4,42.9-21.1c-8.9-16.2-11.6-24.5-11.6-33c0-21.4,30.5-39.4,30.5-60.3c0-20.9-11-32.9-11-55.3
				c0-20.4,9.3-37.8,21.1-52.7c-3,1.8-5.7,4-8.1,6.5c-12.9,13.2-21.7,32.5-21.7,50.2c0,24,9,33.8,9,51.5c0,16.4-34.7,39.1-30.8,61.5
				c-12.1,11.1-26.6,16-39.3,16c1.2,4.6,2.5,9.3,3.8,13.7c-14.2,0.8-20.7,12.9-28.2,16.8c-3.8-5.5-7.2-11.2-10.4-17.1
				c12.7-1.3,16.4-17.6,34.2-16.4c-0.9-4.3-1.7-8.6-2.3-13c-20.4-1.4-24.9,15.8-38.4,16.4c-2.7-6-5.3-12.1-7.7-18.5
				c18.7,0.8,24.9-17.2,44.6-17c-0.1-1.8-0.1-3.7-0.1-5.5c0-3.4,0.1-6.7,0.3-9.9c-23-0.5-29.9,19.2-49.8,17.2
				c-1.7-6.3-3.4-12.7-4.7-19.1c25.1,3.1,34.2-18,56.8-17.9c1-6,2.3-11.9,4-17.7c-27.4-1.2-36.9,22.6-63.5,18.1
				c-0.8-5.6-1.2-11.1-1.4-16.8c30.9,3.5,42.7-21.9,70.9-18.8c2.6-6.7,5.7-13.3,9.3-19.6c-35.4-6.3-47.5,23.4-80.4,18.8
				c3.4-127,107.5-228.9,235.5-228.9S631.8,166,635.5,292.9c-33,4.6-45-25.1-80.5-18.8c3.5,6.3,6.7,12.8,9.3,19.6
				C592.5,290.5,604.2,316,635.2,312.5L635.2,312.5z M298.4,213.7L298.4,213.7c-17.4-7-38.4-5.5-56.4,6
				c-2.7-16.7-11.9-31.6-24.8-40.4c-0.9-0.8-2.2-0.7-3,0.3c-0.4,0.5-0.7,1.2-0.5,1.8c2.6,35.2-18,65.8-43.3,92.6
				c26.1,7.8,48.4-25.8,82.3-14.1C265,241.9,280.6,226.3,298.4,213.7z M399.7,192.5L399.7,192.5c-21.9,0-40.2,12.3-45,28.3
				c-0.4,1.2,0.1,2.1,1.6,1.4c4.2-1.8,8.7-2.7,13.2-2.6c9,0,16.8,3.3,21.4,8.9c2.1,6.8,2.2,16.6-0.1,22.3c-3.7-0.8-5-3.8-8.6-3.8
				c-3.7,0-6.4,2.5-12.4,2.5s-6.8-2.7-10.8-2.7c-4.7,0-5.6,4.8-5.6,10.3c0,24.4,22.3,57.9,46.2,57.9s46.2-33.5,46.2-57.9
				c0-5.3-1.2-10.2-6-10.8c-2.9,2.3-6.7,3.5-10.3,3.4c-6.1,0-7.8-2.5-11.4-2.5c-4.3,0-3.9,9.1-9,9.7c-3.4-8.2-3.7-18.8-0.8-28.2
				c4.7-5.6,12.5-8.9,21.4-8.9c4.6-0.1,9.1,0.8,13.3,2.6c1.4,0.7,1.8-0.1,1.4-1.4C440,204.7,421.6,192.5,399.7,192.5z M434.5,227.4
				L434.5,227.4c-5.2,0-11.4,1.6-15.3,6c-0.4,1.3-0.4,2.7,0.1,4c9.5-3.3,17.9-3.4,22.1,1.2c1.8-1.4,2.7-3.5,2.7-5.7
				C444.3,229.6,441.1,227.4,434.5,227.4z M358.1,238.5L358.1,238.5c4.6-4.7,14.2-4.4,24.3-0.8c0.4-5-8.6-10.4-17.5-10.4
				c-6.4,0-9.7,2.2-9.7,5.3C355.2,235,356.2,237.2,358.1,238.5z M508.9,156.1L508.9,156.1c-16.2,0.9-31.8,6.9-44.5,17.1
				c5-14.1,11.7-27.4,20.1-39.8c-22.1,2.3-40.4,10.3-53.9,24.1L420.2,130l23.4-20.6l-31.3-2.2L399.7,78l-12.5,29.1l-31.2,2.1
				l23.4,20.6l-10.4,27.5c-13.4-13.8-31.8-21.8-53.8-24.1c8.2,12.4,15,25.7,19.8,39.8c-12.7-10.2-28.2-16.2-44.4-17.1
				c10.6,13,19.3,27.4,26.4,42.8c0.5,1.4,2.1,2.2,3.5,1.7c0.3-0.1,0.4-0.1,0.7-0.4c49.6-24.5,107.6-24.5,157.2,0
				c1.3,0.9,3,0.5,3.9-0.8c0.1-0.3,0.3-0.4,0.4-0.7C489.6,183.6,498.5,169.2,508.9,156.1z M546.6,260.1L546.6,260.1
				c33.8-11.7,56.1,21.9,82.3,14.1c-25.3-26.9-46.1-57.4-43.2-92.8c0.1-1.2-0.7-2.3-1.8-2.5c-0.7-0.1-1.3,0.1-1.7,0.4
				c-12.9,9-21.9,23.9-24.7,40.4c-18-11.6-39-13.2-56.4-6C519,226.3,534.5,242,546.6,260.1z"/>
			<polygon class="st2" points="529.9,532.9 529.9,532.9 527.6,532.9 527.6,518 522.1,518 522.1,516.1 535.4,516.1 535.4,518 
				529.9,518 			"/>
			<polygon class="st2" points="546.4,529 546.4,529 551.4,516.1 555.1,516.1 555.1,532.9 552.8,532.9 552.8,518.8 547,532.9 
				545.6,532.9 540,518.8 540,532.9 537.6,532.9 537.6,516.1 541.3,516.1 			"/>
		</g>
	</g>
</g>
</svg>
